<!-- SVG Icon Template for OVH Media Offload Plugin -->
<svg width="256" height="256" viewBox="0 0 256 256" xmlns="http://www.w3.org/2000/svg">
  <!-- Background Circle -->
  <defs>
    <linearGradient id="iconGradient" x1="0%" y1="0%" x2="100%" y2="100%">
      <stop offset="0%" style="stop-color:#3b82f6;stop-opacity:1" />
      <stop offset="100%" style="stop-color:#1f2937;stop-opacity:1" />
    </linearGradient>
    <filter id="shadow">
      <feDropShadow dx="2" dy="2" stdDeviation="3" flood-opacity="0.3"/>
    </filter>
  </defs>
  
  <!-- Background -->
  <circle cx="128" cy="128" r="120" fill="url(#iconGradient)" filter="url(#shadow)"/>
  
  <!-- Cloud Shape -->
  <g transform="translate(128, 100)">
    <path d="M0 20 C5 10, 15 10, 20 15 C25 5, 40 5, 45 20 C55 20, 60 30, 50 40 L-30 40 C-40 40, -45 30, -35 20 C-30 5, -15 5, -10 15 C-5 10, 5 10, 0 20 Z" 
          fill="white" opacity="0.95"/>
  </g>
  
  <!-- Upload Arrow -->
  <g transform="translate(128, 120)">
    <path d="M0 10 L0 30 M-8 18 L0 10 L8 18" stroke="white" stroke-width="4" fill="none" stroke-linecap="round"/>
  </g>
  
  <!-- Storage Icon -->
  <g transform="translate(128, 160)">
    <!-- Server/Storage representation -->
    <rect x="-25" y="0" width="50" height="8" rx="2" fill="white" opacity="0.9"/>
    <rect x="-25" y="12" width="50" height="8" rx="2" fill="white" opacity="0.7"/>
    <rect x="-25" y="24" width="50" height="8" rx="2" fill="white" opacity="0.5"/>
  </g>
  
  <!-- Small OVH indicator -->
  <g transform="translate(180, 60)">
    <circle cx="0" cy="0" r="12" fill="white" opacity="0.9"/>
    <text x="0" y="4" font-family="system-ui, -apple-system, sans-serif" font-size="10" 
          text-anchor="middle" fill="#1f2937" font-weight="bold">O</text>
  </g>
</svg>
